<?xml version="1.0" encoding="utf-8"?>
<!-- Generator: Adobe Illustrator 17.0.0, SVG Export Plug-In . SVG Version: 6.00 Build 0)  -->
<!DOCTYPE svg PUBLIC "-//W3C//DTD SVG 1.1//EN" "http://www.w3.org/Graphics/SVG/1.1/DTD/svg11.dtd">
<svg version="1.1" id="Layer_1" xmlns="http://www.w3.org/2000/svg" xmlns:xlink="http://www.w3.org/1999/xlink" x="0px" y="0px"
	 width="40px" height="40px" viewBox="0 0 40 40" enable-background="new 0 0 40 40" xml:space="preserve">
<path fill="#424242" d="M20.001,0.683C9.348,0.683,0.682,9.348,0.682,20c0,10.652,8.666,19.317,19.318,19.317
	c10.652,0,19.317-8.666,19.317-19.317C39.318,9.348,30.652,0.683,20.001,0.683z M38.086,20.394
	c-2.072-0.582-7.736-1.813-13.902-0.084c-0.301-0.825-0.606-1.615-0.913-2.343c-0.326-0.774-0.703-1.557-1.111-2.338
	c6.053-2.206,9.972-6.27,11.258-7.758c2.905,3.212,4.678,7.467,4.678,12.129C38.096,20.132,38.089,20.263,38.086,20.394z
	 M32.561,6.991c-1.142,1.321-5.041,5.427-10.989,7.551C18.781,9.57,14.86,4.85,13.399,3.156c2.047-0.805,4.272-1.252,6.602-1.252
	C24.876,1.904,29.303,3.845,32.561,6.991z M12.221,3.664c1.134,1.304,5.261,6.18,8.163,11.267c-6.68,2.003-15.734,2.393-18.29,2.464
	C2.973,11.325,6.875,6.221,12.221,3.664z M1.904,20c0-0.464,0.023-0.923,0.058-1.379c2.393-0.062,11.983-0.438,18.963-2.575
	c0.021-0.007,0.041-0.013,0.062-0.02c0.43,0.811,0.823,1.621,1.158,2.416c0.293,0.694,0.584,1.446,0.872,2.232
	c-8.801,2.951-14.365,9.899-15.9,12.018C3.896,29.423,1.904,24.94,1.904,20z M8.014,33.541c1.313-1.816,6.834-8.844,15.414-11.717
	c1.98,5.705,3.696,12.729,4.143,14.606c-2.305,1.066-4.868,1.666-7.57,1.666C15.406,38.096,11.209,36.372,8.014,33.541z
	 M28.692,35.866c-0.536-2.233-2.19-8.901-4.097-14.403c6.075-1.674,11.765-0.296,13.423,0.186
	C37.461,27.78,33.835,33.038,28.692,35.866z"/>
</svg>
