<?xml version="1.0" encoding="utf-8"?>
<!-- Generator: Adobe Illustrator 17.0.0, SVG Export Plug-In . SVG Version: 6.00 Build 0)  -->
<!DOCTYPE svg PUBLIC "-//W3C//DTD SVG 1.1//EN" "http://www.w3.org/Graphics/SVG/1.1/DTD/svg11.dtd">
<svg version="1.1" id="Capa_1" xmlns="http://www.w3.org/2000/svg" xmlns:xlink="http://www.w3.org/1999/xlink" x="0px" y="0px"
	 width="40px" height="40px" viewBox="324.858 324.858 40 40" enable-background="new 324.858 324.858 40 40" xml:space="preserve">
<g>
	<g id="google">
		<g>
			<path fill="#424242" d="M348.816,339.659c0.356-0.536,0.59-1.1,0.703-1.743c0.052-0.481,0.079-0.899,0.079-1.241
				c0-1.475-0.378-2.974-1.119-4.447c-0.381-0.776-0.895-1.422-1.559-1.938c-0.688-0.496-1.483-0.761-2.362-0.789
				c-0.017-0.001-0.035,0-0.052,0c-1.193,0.029-2.198,0.513-2.985,1.441c-0.022,0.026-0.042,0.052-0.061,0.08
				c-0.623,0.913-0.925,1.945-0.899,3.044c0,1.376,0.4,2.812,1.195,4.28c0.408,0.725,0.941,1.347,1.582,1.848
				c0.715,0.561,1.543,0.847,2.496,0.847h0.003c1.136-0.043,2.101-0.46,2.867-1.243
				C348.745,339.756,348.783,339.709,348.816,339.659z M347.642,337.644c-0.053,0.294-0.174,0.593-0.358,0.889
				c-0.409,0.388-0.905,0.589-1.483,0.611c-0.49,0-0.912-0.144-1.292-0.442c-0.443-0.347-0.814-0.779-1.091-1.272
				c-0.636-1.174-0.958-2.306-0.959-3.385c-0.017-0.71,0.16-1.335,0.541-1.911c0.421-0.478,0.907-0.712,1.525-0.733
				c0.49,0.02,0.909,0.16,1.256,0.41c0.411,0.32,0.736,0.731,0.997,1.264c0.611,1.214,0.921,2.425,0.921,3.602
				C347.7,336.956,347.676,337.301,347.642,337.644z M352.518,346.675l-1.598-1.302c-0.221-0.221-0.447-0.477-0.707-0.801
				c-0.089-0.1-0.208-0.274-0.208-0.637c0-0.328,0.082-0.59,0.286-0.872c0.217-0.334,0.453-0.633,0.64-0.833
				c0.523-0.456,1.016-0.905,1.513-1.379c0.44-0.462,0.859-0.972,1.25-1.519c0.856-1.209,1.306-2.807,1.339-4.765l0.001-0.317
				c0.003-0.742,0.005-1.151-0.243-1.971c-0.307-0.84-0.599-1.507-1.025-2.011h0.609c0.295,0,0.574-0.138,0.754-0.373l2.416-3.161
				c0.219-0.287,0.257-0.674,0.097-0.998c-0.159-0.323-0.489-0.528-0.85-0.528h-9.824c-1.358,0-2.832,0.159-4.406,0.48
				c-1.643,0.383-3.239,1.205-4.798,2.494c-2.216,2.142-3.339,4.581-3.339,7.247c0,2.241,0.813,4.227,2.378,5.863
				c1.549,1.824,3.8,2.765,6.703,2.802c0.075,0,0.151-0.001,0.228-0.002c-0.056,0.269-0.084,0.561-0.084,0.884
				c0,0.905,0.213,1.699,0.593,2.294c0.037,0.069,0.074,0.139,0.112,0.208c-0.834,0.075-1.77,0.189-2.805,0.342
				c-1.853,0.32-3.643,0.969-5.339,1.939c-1.574,0.939-2.686,2.063-3.3,3.332c-0.622,1.244-0.936,2.408-0.936,3.462
				c0,2.164,0.986,4.034,2.905,5.531c1.862,1.575,4.658,2.391,8.312,2.425h0.024c4.322-0.068,7.7-1.138,10.044-3.182
				c2.307-2.016,3.477-4.386,3.477-7.058c-0.034-1.865-0.478-3.415-1.342-4.631C354.575,348.563,353.607,347.566,352.518,346.675z
				 M352.012,359.898c-1.993,1.738-4.959,2.65-8.813,2.713c-3.192-0.031-5.578-0.697-7.12-2c-1.483-1.159-2.203-2.487-2.203-4.058
				c0-0.757,0.248-1.636,0.741-2.625c0.454-0.94,1.319-1.793,2.553-2.53c1.487-0.851,3.069-1.424,4.68-1.703
				c1.687-0.249,3.102-0.39,4.208-0.42c0.356-0.01,0.676-0.217,0.83-0.539c0.154-0.321,0.115-0.702-0.101-0.984
				c-0.319-0.42-0.608-0.876-0.899-1.427c-0.228-0.36-0.338-0.801-0.338-1.348c0-0.377,0.059-0.593,0.132-0.769
				c0.105-0.303,0.205-0.581,0.297-0.834c0.112-0.309,0.056-0.653-0.147-0.911c-0.181-0.23-0.457-0.362-0.746-0.362
				c-0.035,0-0.07,0.002-0.105,0.006c-0.531,0.059-1.026,0.089-1.461,0.089c-2.35-0.029-4.074-0.727-5.305-2.174
				c-1.271-1.33-1.889-2.832-1.889-4.592c0-2.161,0.903-4.086,2.704-5.832c1.275-1.051,2.61-1.744,3.94-2.054
				c1.423-0.289,2.769-0.436,4-0.436h7.904l-0.965,1.263h-2.561c-0.419,0-0.777,0.282-0.897,0.683
				c-0.122,0.401,0.047,0.841,0.396,1.073c0.193,0.128,0.899,0.812,1.201,1.103l0.253,0.243c0.287,0.297,0.594,1.141,0.693,1.406
				c0.149,0.496,0.148,0.68,0.145,1.365l-0.001,0.31c-0.026,1.553-0.358,2.792-0.986,3.679c-0.338,0.472-0.701,0.913-1.045,1.278
				c-0.444,0.422-0.918,0.853-1.479,1.347c-0.33,0.342-0.641,0.737-0.894,1.129c-0.414,0.564-0.623,1.221-0.623,1.951
				c0,0.75,0.234,1.391,0.656,1.862c0.269,0.338,0.543,0.647,0.885,0.982l1.668,1.366c0.974,0.797,1.84,1.687,2.551,2.618
				c0.62,0.873,0.946,2.065,0.973,3.524C354.839,356.4,353.915,358.236,352.012,359.898z M347.226,350.543
				c-0.131-0.091-0.282-0.148-0.441-0.165c-0.244-0.027-0.53-0.039-0.856-0.04c-0.245-0.02-0.696-0.004-1.576,0.079
				c-0.777,0.11-1.586,0.29-2.471,0.557c-0.189,0.072-0.455,0.181-0.822,0.337c-0.397,0.182-0.803,0.44-1.24,0.796
				c-0.413,0.366-0.764,0.818-1.026,1.315c-0.345,0.596-0.518,1.306-0.518,2.109c0,1.57,0.706,2.872,2.081,3.853
				c1.238,0.932,2.915,1.418,5.01,1.444c1.891-0.026,3.382-0.472,4.437-1.328c1.089-0.893,1.641-2.058,1.641-3.464
				c0-1.139-0.378-2.145-1.156-3.028C349.617,352.32,348.616,351.513,347.226,350.543z M348.604,358.028
				c-0.712,0.578-1.809,0.881-3.238,0.901c-1.657-0.02-2.959-0.378-3.886-1.076c-0.89-0.636-1.305-1.375-1.305-2.323
				c0-0.465,0.089-0.856,0.281-1.19c0.173-0.325,0.383-0.598,0.593-0.787c0.28-0.228,0.551-0.402,0.777-0.506
				c0.316-0.134,0.56-0.234,0.667-0.278c0.727-0.217,1.442-0.377,2.08-0.469c0.522-0.048,0.895-0.073,1.12-0.073l0.07,0.001
				c0.206,0.029,0.411,0.009,0.585,0.018c1.167,0.825,2.033,1.525,2.549,2.05c0.437,0.496,0.649,1.065,0.649,1.738
				C349.547,356.867,349.246,357.501,348.604,358.028z"/>
		</g>
	</g>
</g>
</svg>
