<?xml version="1.0" encoding="utf-8"?>
<!-- Generator: Adobe Illustrator 17.0.0, SVG Export Plug-In . SVG Version: 6.00 Build 0)  -->
<!DOCTYPE svg PUBLIC "-//W3C//DTD SVG 1.1//EN" "http://www.w3.org/Graphics/SVG/1.1/DTD/svg11.dtd">
<svg version="1.1" id="Capa_1" xmlns="http://www.w3.org/2000/svg" xmlns:xlink="http://www.w3.org/1999/xlink" x="0px" y="0px"
	 width="40px" height="40px" viewBox="286 286 40 40" enable-background="new 286 286 40 40" xml:space="preserve">
<g>
	<g id="instagram">
		<g>
			<path fill="#424242" d="M319.577,291.523H315.9c-1.201,0-2.179,0.978-2.179,2.179v3.676c0,1.201,0.978,2.179,2.179,2.179h3.676
				c1.201,0,2.179-0.978,2.179-2.179v-3.676C321.755,292.501,320.778,291.523,319.577,291.523z M319.847,297.377
				c0,0.15-0.121,0.271-0.271,0.271H315.9c-0.15,0-0.271-0.121-0.271-0.271v-3.676c0-0.15,0.122-0.271,0.271-0.271h3.676
				c0.149,0,0.271,0.121,0.271,0.271V297.377z M317.447,286.444h-22.895c-4.733,0-8.585,3.852-8.585,8.586v21.941
				c0,4.734,3.852,8.585,8.585,8.585h22.895c4.733,0,8.585-3.852,8.585-8.585V295.03
				C326.033,290.296,322.181,286.444,317.447,286.444z M324.125,316.97c0,3.682-2.995,6.678-6.678,6.678h-22.895
				c-3.682,0-6.678-2.995-6.678-6.678v-14.309h9.617c-1.82,2.028-2.939,4.698-2.939,7.632c0,6.312,5.135,11.447,11.447,11.447
				s11.447-5.135,11.447-11.447c0-2.933-1.119-5.603-2.939-7.632h9.617V316.97z M306,300.753c5.26,0,9.539,4.279,9.539,9.539
				c0,5.26-4.279,9.539-9.539,9.539s-9.539-4.279-9.539-9.539C296.461,305.033,300.74,300.753,306,300.753z M324.125,300.753
				h-11.811c-1.812-1.203-3.981-1.908-6.314-1.908c-2.332,0-4.503,0.705-6.314,1.908h-11.811v-5.724
				c0-3.682,2.995-6.678,6.678-6.678h22.895c3.682,0,6.678,2.995,6.678,6.678V300.753z M306,316.97c3.682,0,6.678-2.995,6.678-6.678
				c0-3.682-2.995-6.678-6.678-6.678s-6.678,2.995-6.678,6.678C299.322,313.975,302.318,316.97,306,316.97z M306,305.523
				c2.63,0,4.77,2.14,4.77,4.77c0,2.63-2.14,4.77-4.77,4.77s-4.77-2.14-4.77-4.77C301.23,307.663,303.37,305.523,306,305.523z"/>
		</g>
	</g>
</g>
</svg>
