<?xml version="1.0" encoding="utf-8"?>
<!-- Generator: Adobe Illustrator 17.0.0, SVG Export Plug-In . SVG Version: 6.00 Build 0)  -->
<!DOCTYPE svg PUBLIC "-//W3C//DTD SVG 1.1//EN" "http://www.w3.org/Graphics/SVG/1.1/DTD/svg11.dtd">
<svg version="1.1" id="Layer_1" xmlns="http://www.w3.org/2000/svg" xmlns:xlink="http://www.w3.org/1999/xlink" x="0px" y="0px"
	 width="40px" height="40px" viewBox="0 0 40 40" enable-background="new 0 0 40 40" xml:space="preserve">
<g>
	<g>
		<path fill="#424242" d="M5.463,10.753c-1.286,0-2.528-0.48-3.496-1.351C0.913,8.454,0.343,7.31,0.226,5.903
			c-0.122-1.458,0.35-2.845,1.326-3.904C2.525,0.945,3.68,0.383,5.084,0.28C5.218,0.27,5.35,0.265,5.479,0.265
			c1.301,0,2.583,0.495,3.518,1.357c1.047,0.966,1.653,2.227,1.706,3.553c0.059,1.493-0.397,2.785-1.357,3.842
			c-0.936,1.031-2.148,1.627-3.505,1.723C5.714,10.749,5.587,10.753,5.463,10.753z M5.479,1.531c-0.099,0-0.2,0.004-0.302,0.011
			C4.094,1.622,3.238,2.04,2.483,2.857C1.964,3.42,1.37,4.387,1.488,5.798c0.09,1.085,0.512,1.931,1.325,2.663
			c0.426,0.384,1.337,1.026,2.65,1.026c0.095,0,0.191-0.003,0.289-0.01c1.296-0.092,2.16-0.764,2.657-1.312
			c0.729-0.802,1.075-1.791,1.029-2.94C9.387,3.96,8.703,3.073,8.139,2.552C7.806,2.245,6.88,1.531,5.479,1.531z"/>
	</g>
	<g>
		<path fill="#424242" d="M21.506,39.735c-0.107,0-0.216-0.004-0.317-0.008c-0.513-0.025-1.082-0.037-1.792-0.037
			c-0.484,0-0.975,0.006-1.464,0.011c-0.492,0.005-0.984,0.011-1.468,0.011c-0.092,0-0.191,0-0.294-0.002
			c-0.205-0.002-0.429-0.004-0.647,0.002c-0.06,0.002-0.123,0.005-0.187,0.009c-0.119,0.007-0.24,0.013-0.355,0.013
			c0,0-0.001,0-0.002,0c-0.206,0-0.827-0.002-1.113-0.518c-0.179-0.324-0.176-0.791-0.151-1.468c0.005-0.136,0.01-0.265,0.01-0.372
			V15.249c0-0.095-0.003-0.206-0.005-0.322c-0.019-0.828-0.015-1.352,0.283-1.673c0.213-0.229,0.548-0.331,1.087-0.331
			c0.081,0,0.162,0.002,0.242,0.006c0.632,0.03,1.303,0.044,2.113,0.044c0.585,0,1.171-0.007,1.761-0.014
			c0.603-0.008,1.211-0.015,1.826-0.015c0.068,0,0.136-0.002,0.202-0.005c0.076-0.002,0.149-0.005,0.219-0.005
			c0.185,0,0.618,0,0.913,0.324c0.263,0.289,0.254,0.697,0.246,1.056c-0.001,0.055-0.002,0.109-0.002,0.16
			c0,0.235-0.004,0.473-0.008,0.712c0,0.023,0,0.047-0.001,0.071c1.605-1.788,3.888-2.822,6.577-2.948
			c0.214-0.01,0.426-0.015,0.636-0.015c1.241,0,2.49,0.175,3.614,0.505c3.501,1.028,5.564,3.841,6.132,8.363
			c0.265,2.111,0.242,4.53,0.219,6.869c-0.006,0.674-0.013,1.349-0.013,2.02v7.897c0,0.078,0.003,0.158,0.007,0.239
			c0.017,0.441,0.041,1.047-0.453,1.363c-0.24,0.155-0.542,0.176-0.805,0.176c-0.119,0-0.243-0.005-0.357-0.01l-0.101-0.005
			c-0.502-0.019-1.017-0.027-1.622-0.027c-0.532,0-1.059,0.007-1.592,0.014c-0.548,0.007-1.101,0.014-1.67,0.014l-0.305-0.002
			c-0.212-0.002-0.44-0.004-0.669,0.002c-0.057,0.002-0.117,0.005-0.176,0.007c-0.105,0.006-0.209,0.01-0.307,0.01
			c-0.185,0-0.676,0-0.976-0.384c-0.256-0.326-0.254-0.81-0.222-1.511c0.005-0.11,0.01-0.211,0.01-0.288V27.093
			c0-1.942,0-3.619-0.564-4.881c-0.547-1.221-1.537-1.727-3.221-1.654c-2.267,0.096-3.419,1.318-3.733,3.964
			c-0.096,0.809-0.104,1.691-0.104,2.759v10.281c0,0.073,0.003,0.161,0.007,0.258c0.025,0.654,0.052,1.395-0.469,1.73
			C22.241,39.68,21.961,39.735,21.506,39.735z M19.397,38.425c0.73,0,1.318,0.012,1.852,0.038c0.134,0.006,0.299,0.008,0.401,0.004
			c0.013-0.184,0.003-0.45-0.003-0.599c-0.004-0.114-0.008-0.219-0.008-0.305V27.28c0-1.111,0.008-2.03,0.113-2.909
			c0.386-3.248,2.048-4.958,4.937-5.079c0.119-0.005,0.234-0.008,0.347-0.008c2.021,0,3.357,0.788,4.082,2.409
			c0.675,1.509,0.675,3.311,0.675,5.398v10.453c0,0.093-0.005,0.213-0.011,0.346c-0.006,0.141-0.018,0.388-0.012,0.571
			c0.062-0.001,0.125-0.005,0.19-0.008c0.068-0.004,0.137-0.007,0.204-0.009c0.248-0.006,0.49-0.005,0.716-0.002l0.293,0.002
			c0.563,0,1.111-0.007,1.653-0.014c0.537-0.007,1.07-0.014,1.608-0.014c0.613,0,1.159,0.009,1.671,0.028l0.11,0.005
			c0.096,0.004,0.2,0.009,0.3,0.009c0-0.075-0.004-0.157-0.006-0.223c-0.004-0.097-0.007-0.194-0.007-0.288v-7.897
			c0-0.675,0.006-1.355,0.013-2.033c0.023-2.402,0.045-4.672-0.21-6.699c-0.507-4.031-2.218-6.421-5.233-7.306
			c-1.01-0.297-2.136-0.454-3.257-0.454c-0.19,0-0.382,0.004-0.576,0.014c-3.642,0.172-5.548,2.062-6.505,3.617
			c-0.196,0.392-0.509,0.453-0.677,0.453l0,0c-0.117,0-0.23-0.028-0.337-0.083l-0.307-0.157l-0.034-0.343
			c-0.061-0.611-0.051-1.264-0.041-1.895c0.003-0.232,0.007-0.464,0.007-0.692c0-0.061,0.001-0.124,0.003-0.189
			c0.001-0.025,0.001-0.053,0.002-0.083c-0.024,0.001-0.049,0.001-0.074,0.002c-0.079,0.003-0.16,0.005-0.242,0.005
			c-0.61,0-1.212,0.007-1.81,0.015c-0.595,0.007-1.186,0.014-1.776,0.014c-0.83,0-1.52-0.014-2.173-0.045
			c-0.099-0.005-0.209-0.006-0.286-0.003c-0.012,0.217-0.004,0.53,0,0.706c0.003,0.128,0.006,0.248,0.006,0.352v22.127
			c0,0.121-0.005,0.266-0.011,0.419c-0.007,0.181-0.018,0.473-0.008,0.672c0.095,0,0.196-0.005,0.295-0.011
			c0.074-0.004,0.147-0.008,0.216-0.01c0.236-0.007,0.478-0.005,0.7-0.002l0.28,0.002c0.479,0,0.966-0.005,1.454-0.01
			C18.413,38.43,18.908,38.425,19.397,38.425z"/>
	</g>
	<g>
		<path fill="#424242" d="M2.033,39.726c-0.198,0-0.723,0-1.01-0.404c-0.23-0.323-0.23-0.793-0.204-1.528
			c0.005-0.13,0.009-0.254,0.009-0.356c0-0.792,0.004-1.6,0.008-2.405c0.004-0.797,0.008-1.591,0.008-2.363V19.909
			c0-0.896-0.004-1.794-0.008-2.704c-0.004-0.936-0.008-1.884-0.008-2.855l0-0.071c-0.001-0.457-0.003-1.222,0.981-1.332
			c0.19-0.021,0.401-0.031,0.666-0.031c0.219,0,0.447,0.007,0.675,0.014c0.211,0.007,0.421,0.013,0.619,0.013h3.778
			c0.089,0,0.185,0.001,0.285,0.003c0.196,0.003,0.411,0.007,0.631-0.003l0.032-0.002c0.383-0.018,0.907-0.067,1.246,0.246
			c0.319,0.294,0.342,0.779,0.317,1.741c-0.003,0.09-0.005,0.169-0.005,0.226v22.312c0,0.066,0.003,0.153,0.005,0.25
			c0.026,0.889,0.015,1.452-0.352,1.765c-0.249,0.212-0.572,0.24-0.856,0.24c-0.091,0-0.187-0.004-0.281-0.007
			c-0.061-0.002-0.122-0.004-0.181-0.005c-1.121-0.017-2.173-0.011-3.255-0.006c-0.556,0.003-1.12,0.006-1.705,0.006
			c-0.095,0-0.196-0.001-0.3-0.002c-0.208-0.003-0.433-0.006-0.669,0.002l-0.12,0.005C2.238,39.722,2.134,39.726,2.033,39.726z
			 M2.094,14.193c0,0.028,0,0.057,0,0.083l0,0.074c0,0.969,0.004,1.915,0.008,2.849c0.004,0.911,0.008,1.812,0.008,2.709v12.759
			c0,0.774-0.004,1.571-0.008,2.37c-0.004,0.803-0.008,1.609-0.008,2.399c0,0.116-0.005,0.255-0.01,0.402
			c-0.006,0.166-0.016,0.428-0.009,0.621c0.068-0.001,0.137-0.004,0.203-0.008l0.136-0.006c0.257-0.009,0.503-0.006,0.729-0.003
			c0.099,0.001,0.194,0.002,0.284,0.002c0.583,0,1.145-0.002,1.699-0.005c1.091-0.005,2.15-0.011,3.281,0.005
			c0.067,0.001,0.137,0.004,0.207,0.006c0.06,0.002,0.121,0.004,0.18,0.005c0.012-0.225,0.003-0.539-0.002-0.701
			c-0.003-0.112-0.006-0.212-0.006-0.288V15.156c0-0.066,0.002-0.156,0.005-0.259c0.004-0.148,0.012-0.464,0.002-0.698
			C8.71,14.2,8.627,14.204,8.552,14.207l-0.033,0.002C8.273,14.22,8.03,14.216,7.81,14.213c-0.093-0.002-0.181-0.003-0.264-0.003
			H3.768c-0.211,0-0.434-0.007-0.658-0.014C2.746,14.185,2.359,14.175,2.094,14.193z"/>
	</g>
</g>
</svg>
