<?xml version="1.0" encoding="utf-8"?>
<!-- Generator: Adobe Illustrator 17.0.0, SVG Export Plug-In . SVG Version: 6.00 Build 0)  -->
<!DOCTYPE svg PUBLIC "-//W3C//DTD SVG 1.1//EN" "http://www.w3.org/Graphics/SVG/1.1/DTD/svg11.dtd">
<svg version="1.1" id="Capa_1" xmlns="http://www.w3.org/2000/svg" xmlns:xlink="http://www.w3.org/1999/xlink" x="0px" y="0px"
	 width="40px" height="40px" viewBox="285.991 285.991 40 40" enable-background="new 285.991 285.991 40 40" xml:space="preserve">
<g>
	<g id="twitter">
		<g>
			<path fill="#424242" d="M325.657,293.414c-0.322-0.22-0.747-0.213-1.058,0.021c-0.216,0.161-0.537,0.304-0.911,0.428
				c1.234-1.53,1.252-2.553,1.234-2.805c-0.025-0.327-0.224-0.617-0.521-0.757c-0.298-0.14-0.647-0.109-0.915,0.084
				c-1.682,1.204-3.365,1.466-4.348,1.5c-1.599-1.485-3.665-2.299-5.862-2.299c-4.753,0-8.62,3.866-8.62,8.619
				c0,0.344,0.02,0.687,0.061,1.028c-7.932-0.197-14.366-7.674-14.43-7.75c-0.19-0.226-0.477-0.345-0.773-0.318
				c-0.294,0.026-0.557,0.193-0.706,0.447c-2.019,3.451-1.195,6.721,0.189,9.008c-0.257-0.138-0.568-0.147-0.836-0.014
				c-0.304,0.151-0.499,0.459-0.505,0.799c-0.059,3.625,1.597,5.799,3.267,7.065c-0.123,0.05-0.235,0.127-0.326,0.228
				c-0.217,0.238-0.293,0.574-0.197,0.882c1.161,3.746,3.889,5.149,5.803,5.675c-2.195,1.548-4.91,1.911-6.974,1.911
				c-1.318,0-2.225-0.156-2.234-0.158c-0.411-0.073-0.824,0.148-0.992,0.534c-0.167,0.385-0.049,0.836,0.287,1.088
				c4.14,3.113,9.14,3.767,12.605,3.767c2.739,0,4.642-0.4,4.738-0.421c17.788-4.154,18.464-20.104,18.436-23.01
				c3.334-3.064,3.866-4.259,3.949-4.558C326.123,294.033,325.978,293.634,325.657,293.414z M320.539,297.902
				c-0.206,0.187-0.315,0.458-0.296,0.737c0.012,0.173,0.984,17.362-17.005,21.563c-0.017,0.004-1.81,0.377-4.343,0.377
				c-2.361,0-5.485-0.323-8.467-1.631c2.73-0.175,6.077-1.012,8.485-3.676c0.241-0.267,0.3-0.65,0.154-0.979
				c-0.146-0.328-0.475-0.54-0.834-0.54c-0.169,0-3.748-0.043-5.54-3.37c0.829,0.026,1.581-0.096,2.139-0.35
				c0.357-0.163,0.568-0.536,0.526-0.926s-0.331-0.709-0.715-0.792c-0.194-0.042-4.314-0.98-5.057-5.326
				c0.646,0.246,1.431,0.417,2.192,0.306c0.353-0.053,0.643-0.306,0.741-0.649c0.098-0.343-0.014-0.712-0.285-0.943
				c-0.182-0.155-4.111-3.569-2.404-8.038c2.289,2.323,8.517,7.792,16.027,7.369c0.271-0.015,0.522-0.152,0.682-0.371
				c0.16-0.219,0.215-0.499,0.147-0.763c-0.141-0.55-0.212-1.12-0.212-1.693c0-3.749,3.051-6.8,6.802-6.8
				c1.838,0,3.559,0.721,4.849,2.031c0.167,0.169,0.395,0.267,0.633,0.271l0.14,0.001c0.668,0,1.716-0.081,2.917-0.468
				c-0.385,0.406-0.885,0.865-1.533,1.366c-0.318,0.246-0.436,0.672-0.292,1.047c0.145,0.376,0.523,0.612,0.919,0.579
				c0.147-0.012,0.795-0.068,1.596-0.212C322.001,296.538,321.358,297.159,320.539,297.902z"/>
		</g>
	</g>
</g>
</svg>
