<?xml version="1.0" encoding="utf-8"?>
<!-- Generator: Adobe Illustrator 17.0.0, SVG Export Plug-In . SVG Version: 6.00 Build 0)  -->
<!DOCTYPE svg PUBLIC "-//W3C//DTD SVG 1.1//EN" "http://www.w3.org/Graphics/SVG/1.1/DTD/svg11.dtd">
<svg version="1.1" id="Layer_1" xmlns="http://www.w3.org/2000/svg" xmlns:xlink="http://www.w3.org/1999/xlink" x="0px" y="0px"
	 width="40px" height="40px" viewBox="0 0 40 40" enable-background="new 0 0 40 40" xml:space="preserve">
<g>
	<g>
		<path fill="#424242" d="M11.467,32.005L11.467,32.005c-0.337,0-0.641-0.006-0.9-0.01c-0.189-0.003-0.353-0.006-0.489-0.006h-9.64
			V7.512h10.823c0.096,0,0.201-0.001,0.315-0.002c0.136-0.001,0.283-0.002,0.44-0.002c1.932,0,7.809,0,7.809,6.041
			c0,3.099-1.506,4.564-2.479,5.187c1.292,0.663,3.662,2.408,3.662,6.268c0,2.828-1.221,4.832-3.628,5.957
			C15.877,31.663,13.943,32.005,11.467,32.005z M1.218,31.208h8.86c0.14,0,0.309,0.003,0.503,0.007
			c0.255,0.005,0.554,0.01,0.886,0.01c2.359,0,4.185-0.317,5.583-0.97c2.109-0.986,3.178-2.753,3.178-5.251
			c0-4.678-3.752-5.817-3.912-5.863l-1.227-0.355l1.215-0.391c0.11-0.037,2.741-0.953,2.741-4.845c0-4.715-4.011-5.261-7.029-5.261
			c-0.155,0-0.3,0.001-0.434,0.002c-0.116,0.001-0.223,0.002-0.321,0.002H1.218V31.208z M12.023,27.786H5.547v-6.911h6.476
			c1.751,0,3.796,0.905,3.796,3.455C15.818,26.624,14.541,27.786,12.023,27.786z M6.327,27.006h5.696c2.114,0,3.016-0.8,3.016-2.676
			c0-2.482-2.309-2.675-3.016-2.675H6.327V27.006z M11.341,17.784H5.547v-6.225h5.795c1.576,0,3.416,0.815,3.416,3.113
			C14.757,16.737,13.608,17.784,11.341,17.784z M6.327,17.004h5.015c1.848,0,2.636-0.697,2.636-2.333
			c0-2.164-2.018-2.333-2.636-2.333H6.327V17.004z"/>
	</g>
	<g>
		<path fill="#424242" d="M30.783,32.492c-6.757,0-9.155-5.048-9.155-9.371c0-2.834,0.884-9.424,9.075-9.424
			c8.221,0,8.86,8.036,8.86,10.5v0.39H27.27c0.062,0.613,0.288,1.828,1.115,2.663c0.6,0.606,1.426,0.913,2.452,0.913
			c2.781,0,3.273-1.863,3.278-1.882l0.073-0.296h5.082l-0.092,0.466C39.166,26.511,37.904,32.492,30.783,32.492z M30.702,14.477
			c-7.217,0-8.295,5.416-8.295,8.644c0,1.435,0.404,8.591,8.376,8.591c5.343,0,7.053-3.634,7.497-4.947h-3.518
			c-0.292,0.657-1.258,2.178-3.925,2.178c-1.245,0-2.257-0.386-3.01-1.149c-1.371-1.388-1.361-3.512-1.36-3.602l0.005-0.385h12.305
			C38.704,21.173,37.815,14.477,30.702,14.477z M34.864,21.521H26.67l0.012-0.402c0.001-0.038,0.166-3.844,4.24-3.844
			c1.263,0,2.256,0.37,2.95,1.099c1.079,1.133,1.014,2.71,1.011,2.776L34.864,21.521z M27.509,20.741h6.576
			c-0.048-0.455-0.214-1.239-0.783-1.834c-0.541-0.565-1.342-0.852-2.381-0.852C28.295,18.055,27.661,19.902,27.509,20.741z"/>
	</g>
	<g>
		<path fill="#424242" d="M36.053,12.177H25.351V9.018h10.702V12.177z M26.131,11.397h9.142v-1.6h-9.142V11.397z"/>
	</g>
</g>
</svg>
