<?xml version="1.0" encoding="utf-8"?>
<!-- Generator: Adobe Illustrator 17.0.0, SVG Export Plug-In . SVG Version: 6.00 Build 0)  -->
<!DOCTYPE svg PUBLIC "-//W3C//DTD SVG 1.1//EN" "http://www.w3.org/Graphics/SVG/1.1/DTD/svg11.dtd">
<svg version="1.1" id="Layer_1" xmlns="http://www.w3.org/2000/svg" xmlns:xlink="http://www.w3.org/1999/xlink" x="0px" y="0px"
	 width="30px" height="30px" viewBox="0 0 30 30" enable-background="new 0 0 30 30" xml:space="preserve">
<path fill="#424242" d="M14.989,0.442c-8.047,0-14.594,6.546-14.594,14.593c0,8.047,6.547,14.593,14.594,14.593
	c8.047,0,14.593-6.546,14.593-14.593C29.582,6.988,23.036,0.442,14.989,0.442z M28.652,15.333c-1.565-0.44-5.844-1.37-10.502-0.063
	c-0.227-0.623-0.458-1.22-0.69-1.77c-0.247-0.585-0.531-1.176-0.839-1.767c4.572-1.667,7.533-4.737,8.505-5.861
	c2.195,2.426,3.534,5.641,3.534,9.162C28.659,15.135,28.654,15.233,28.652,15.333z M24.478,5.208
	c-0.863,0.998-3.808,4.1-8.301,5.704c-2.109-3.756-5.07-7.322-6.174-8.601c1.546-0.608,3.228-0.946,4.987-0.946
	C18.672,1.365,22.017,2.831,24.478,5.208z M9.113,2.694c0.856,0.985,3.974,4.668,6.167,8.512
	c-5.046,1.513-11.886,1.808-13.817,1.862C2.126,8.482,5.074,4.625,9.113,2.694z M1.319,15.035c0-0.351,0.017-0.697,0.044-1.042
	c1.807-0.047,9.052-0.331,14.325-1.945c0.016-0.005,0.031-0.01,0.047-0.015c0.325,0.612,0.621,1.224,0.875,1.825
	c0.221,0.525,0.441,1.092,0.659,1.686c-6.648,2.229-10.852,7.478-12.011,9.079C2.823,22.153,1.319,18.767,1.319,15.035z
	 M5.935,25.264c0.992-1.372,5.163-6.681,11.644-8.851c1.496,4.309,2.792,9.616,3.13,11.034c-1.741,0.805-3.678,1.258-5.719,1.258
	C11.519,28.705,8.348,27.403,5.935,25.264z M21.555,27.021c-0.405-1.687-1.655-6.724-3.095-10.88
	c4.589-1.264,8.888-0.224,10.14,0.14C28.18,20.912,25.441,24.884,21.555,27.021z"/>
</svg>
