<?xml version="1.0" encoding="utf-8"?>
<!-- Generator: Adobe Illustrator 16.0.0, SVG Export Plug-In . SVG Version: 6.00 Build 0)  -->
<!DOCTYPE svg PUBLIC "-//W3C//DTD SVG 1.1//EN" "http://www.w3.org/Graphics/SVG/1.1/DTD/svg11.dtd">
<svg version="1.1" id="Layer_1" xmlns="http://www.w3.org/2000/svg" xmlns:xlink="http://www.w3.org/1999/xlink" x="0px" y="0px"
	 width="100px" height="100px" viewBox="0 0 100 100" enable-background="new 0 0 100 100" xml:space="preserve">
<path fill="#32C5F4" d="M50,0.283c-27.458,0-49.717,22.258-49.717,49.714c0,27.463,22.259,49.72,49.717,49.72
	s49.717-22.257,49.717-49.72C99.717,22.541,77.457,0.283,50,0.283z M53.574,93.488V77.511h12.284v-7.137H53.574v-8.369v-0.062
	v-0.615c4.232-0.223,8.272,0.665,12.279,1.801c0.34-15.803,4.955-30.018,15.216-42.212c-3.354,0.043-6.564,0.605-9.607,1.984
	c-3.056,1.391-5.53,3.494-7.682,6.146c1.484-0.305,2.876-0.508,4.276,0.239c-4.508,8.269-7.065,17.076-7.514,26.407
	c-1.2-0.155-2.327-0.363-3.463-0.438c-1.152-0.074-2.308-0.016-3.506-0.016v-0.424c0-8.995,0-17.985,0-26.979
	c0-0.078,0.005-0.16-0.002-0.233c-0.024-0.208,0.076-0.27,0.266-0.289c1.479-0.152,2.906,0.023,4.287,0.576
	c0.15,0.061,0.307,0.114,0.519,0.19c-2.893-5.635-5.751-11.206-8.642-16.834c-2.894,5.637-5.752,11.202-8.641,16.832
	c0.151-0.051,0.223-0.074,0.292-0.101c1.392-0.582,2.835-0.812,4.34-0.679c0.33,0.033,0.446,0.107,0.446,0.466
	c-0.012,9.037-0.007,18.072-0.007,27.11v0.421c-2.35-0.151-4.653-0.151-6.97,0.498c-0.453-9.452-3.019-18.256-7.516-26.509
	c1.418-0.752,2.808-0.537,4.276-0.239c-2.133-2.62-4.577-4.713-7.587-6.101c-3.066-1.414-6.312-1.987-9.705-2.032
	C29.194,33.11,33.809,47.319,34.147,63.052c2.005-0.445,4.011-0.943,6.036-1.329c2.046-0.392,4.126-0.47,6.255-0.417v0.637v0.062
	v8.369H34.137v7.137h12.302v15.979C24.001,91.676,6.354,72.906,6.354,49.999C6.354,25.894,25.895,6.354,50,6.354
	c24.103,0,43.648,19.539,43.648,43.644C93.647,72.901,76.004,91.668,53.574,93.488z"/>
</svg>
