<?xml version="1.0" encoding="utf-8"?>
<!-- Generator: Adobe Illustrator 17.0.0, SVG Export Plug-In . SVG Version: 6.00 Build 0)  -->
<!DOCTYPE svg PUBLIC "-//W3C//DTD SVG 1.1//EN" "http://www.w3.org/Graphics/SVG/1.1/DTD/svg11.dtd">
<svg version="1.1" id="Layer_1" xmlns="http://www.w3.org/2000/svg" xmlns:xlink="http://www.w3.org/1999/xlink" x="0px" y="0px"
	 width="40px" height="40px" viewBox="0 0 40 40" enable-background="new 0 0 40 40" xml:space="preserve">
<g>
	<path fill="#424242" d="M23.788,39.882h-8.706V22.536H9.301v-8.283h5.681c-0.512-4.668,0.327-8.406,2.445-10.845
		c1.896-2.183,4.693-3.291,8.314-3.291c1.345,0,2.809,0.159,4.352,0.471l0.606,0.123V8.15h-0.757c-0.229,0-0.546-0.026-0.947-0.06
		c-0.597-0.05-1.341-0.112-2.092-0.112c-1.94,0-2.509,0.424-2.675,0.677c-0.642,0.976-0.587,4.391-0.556,5.726
		c1.256,0.001,2.655,0.005,3.82,0.008c0.943,0.003,1.732,0.005,2.168,0.005h0.891l-0.145,0.879
		c-0.023,0.138-0.099,0.684-0.201,1.407c-0.353,2.497-0.678,4.78-0.796,5.274l-0.138,0.581h-5.483V39.882z M16.596,38.369h5.68
		V21.023h5.767c0.174-1.077,0.482-3.259,0.666-4.554c0.028-0.203,0.055-0.392,0.079-0.563c-0.375-0.001-0.817-0.002-1.299-0.003
		c-1.399-0.004-3.136-0.009-4.558-0.009h-0.757v-0.757c0-0.131-0.004-0.325-0.01-0.566c-0.066-2.772-0.014-5.507,0.801-6.747
		c0.601-0.914,1.89-1.359,3.939-1.359c0.814,0,1.626,0.068,2.218,0.117c0.022,0.002,0.044,0.004,0.065,0.005V1.956
		c-1.22-0.216-2.376-0.325-3.445-0.325c-3.163,0-5.576,0.932-7.172,2.77c-1.951,2.247-2.636,5.879-1.981,10.503l0.122,0.863h-5.897
		v5.257h5.782V38.369z"/>
</g>
</svg>
