<?xml version="1.0" encoding="utf-8"?>
<!-- Generator: Adobe Illustrator 17.0.0, SVG Export Plug-In . SVG Version: 6.00 Build 0)  -->
<!DOCTYPE svg PUBLIC "-//W3C//DTD SVG 1.1//EN" "http://www.w3.org/Graphics/SVG/1.1/DTD/svg11.dtd">
<svg version="1.1" id="Layer_1" xmlns="http://www.w3.org/2000/svg" xmlns:xlink="http://www.w3.org/1999/xlink" x="0px" y="0px"
	 width="40px" height="40px" viewBox="0 0 40 40" enable-background="new 0 0 40 40" xml:space="preserve">
<g>
	<g>
		<path fill="#424242" d="M11.414,32.08L11.414,32.08c-0.339,0-0.645-0.006-0.906-0.01c-0.19-0.003-0.355-0.006-0.492-0.006h-9.7
			V7.434h10.891c0.097,0,0.203-0.001,0.317-0.002c0.137-0.001,0.285-0.002,0.443-0.002c1.944,0,7.857,0,7.857,6.078
			c0,3.119-1.516,4.593-2.495,5.219c1.3,0.668,3.685,2.423,3.685,6.308c0,2.846-1.228,4.863-3.651,5.995
			C15.851,31.736,13.905,32.08,11.414,32.08z M1.1,31.278h8.916c0.141,0,0.311,0.003,0.507,0.007c0.257,0.005,0.558,0.01,0.891,0.01
			c2.374,0,4.211-0.319,5.618-0.976c2.122-0.992,3.198-2.77,3.198-5.284c0-4.707-3.776-5.854-3.937-5.9l-1.235-0.357l1.222-0.394
			c0.111-0.037,2.758-0.959,2.758-4.876c0-4.745-4.036-5.294-7.073-5.294c-0.156,0-0.302,0.001-0.437,0.002
			c-0.117,0.001-0.225,0.002-0.323,0.002H1.1V31.278z M11.973,27.835H5.456v-6.954h6.517c1.762,0,3.819,0.91,3.819,3.477
			C15.792,26.665,14.507,27.835,11.973,27.835z M6.241,27.05h5.732c2.127,0,3.035-0.805,3.035-2.692
			c0-2.498-2.323-2.692-3.035-2.692H6.241V27.05z M11.287,17.77H5.456v-6.264h5.831c1.585,0,3.437,0.82,3.437,3.132
			C14.724,16.716,13.568,17.77,11.287,17.77z M6.241,16.985h5.046c1.859,0,2.652-0.702,2.652-2.347c0-2.178-2.03-2.347-2.652-2.347
			H6.241V16.985z"/>
	</g>
	<g>
		<path fill="#424242" d="M30.85,32.57c-6.8,0-9.213-5.08-9.213-9.429c0-2.851,0.89-9.483,9.132-9.483
			c8.273,0,8.916,8.087,8.916,10.565v0.392H27.316c0.062,0.617,0.29,1.84,1.122,2.68c0.604,0.61,1.434,0.919,2.467,0.919
			c2.799,0,3.294-1.874,3.298-1.893l0.074-0.298h5.114l-0.092,0.468C39.286,26.552,38.016,32.57,30.85,32.57z M30.769,14.443
			c-7.263,0-8.347,5.45-8.347,8.698c0,1.444,0.406,8.645,8.428,8.645c5.376,0,7.098-3.657,7.544-4.978h-3.54
			c-0.294,0.661-1.266,2.192-3.95,2.192c-1.253,0-2.272-0.389-3.029-1.156c-1.38-1.397-1.369-3.534-1.368-3.625l0.005-0.387h12.382
			C38.821,21.18,37.926,14.443,30.769,14.443z M34.957,21.531h-8.246l0.012-0.404c0.001-0.039,0.167-3.869,4.266-3.869
			c1.271,0,2.27,0.372,2.969,1.106c1.086,1.14,1.02,2.727,1.017,2.794L34.957,21.531z M27.557,20.746h6.617
			c-0.048-0.458-0.215-1.247-0.788-1.846c-0.544-0.569-1.35-0.857-2.395-0.857C28.347,18.042,27.709,19.901,27.557,20.746z"/>
	</g>
	<g>
		<path fill="#424242" d="M36.153,12.128H25.385V8.949h10.769V12.128z M26.17,11.343h9.199v-1.61H26.17V11.343z"/>
	</g>
</g>
</svg>
