<?xml version="1.0" encoding="utf-8"?>
<!-- Generator: Adobe Illustrator 19.0.0, SVG Export Plug-In . SVG Version: 6.00 Build 0)  -->
<svg version="1.1" id="Layer_1" xmlns="http://www.w3.org/2000/svg" xmlns:xlink="http://www.w3.org/1999/xlink" x="0px" y="0px"
	 viewBox="-90 92 18 18" style="enable-background:new -90 92 18 18;" xml:space="preserve">
<style type="text/css">
	.st0{fill:#7E7E7E;}
</style>
<path class="st0" d="M-81,92c-5,0-9,4-9,9s4,9,9,9s9-4,9-9S-76,92-81,92z M-80.4,108.9V106h2.2v-1.3h-2.2v-1.5l0,0v-0.1
	c0.8,0,1.5,0.1,2.2,0.3c0.1-2.9,0.9-5.4,2.8-7.6c-0.6,0-1.2,0.1-1.7,0.4c-0.6,0.3-1,0.6-1.4,1.1c0.3-0.1,0.5-0.1,0.8,0
	c-0.8,1.4-1.3,3-1.4,4.7c-0.2,0-0.4-0.1-0.6-0.1c-0.2,0-0.4,0-0.6,0l0,0c0-1.6,0-3.3,0-4.9l0,0c0,0,0,0,0-0.1c0.3,0,0.5,0,0.8,0.1
	h0.1c-0.6-1-1.1-2-1.6-3c-0.5,1-1,2-1.6,3c0,0,0,0,0.1,0c0.2-0.1,0.5-0.1,0.8-0.1c0.1,0,0.1,0,0.1,0.1c0,1.6,0,3.3,0,4.9v0.1
	c-0.4,0-0.8,0-1.3,0.1c-0.1-1.8-0.6-3.4-1.4-4.9c0.3-0.1,0.5-0.1,0.8,0c-0.4-0.5-0.8-0.8-1.4-1.1c-0.5-0.3-1.1-0.4-1.7-0.4
	c1.9,2.2,2.7,4.8,2.8,7.6c0.4-0.1,0.7-0.2,1.1-0.2c0.3,0,0.7-0.1,1.1-0.1v0.1l0,0v1.5h-2.3v1.4h2.2v2.9c-4-0.4-7.2-3.8-7.2-7.9
	c0-4.4,3.5-7.9,7.9-7.9s7.9,3.5,7.9,7.9C-73.1,105.1-76.3,108.5-80.4,108.9z"/>
</svg>
