<?xml version="1.0" encoding="utf-8"?>
<!-- Generator: Adobe Illustrator 17.1.0, SVG Export Plug-In . SVG Version: 6.00 Build 0)  -->
<!DOCTYPE svg PUBLIC "-//W3C//DTD SVG 1.1//EN" "http://www.w3.org/Graphics/SVG/1.1/DTD/svg11.dtd">
<svg version="1.1" id="Layer_1" xmlns="http://www.w3.org/2000/svg" xmlns:xlink="http://www.w3.org/1999/xlink" x="0px" y="0px"
	 viewBox="0 0 18 18" enable-background="new 0 0 18 18" xml:space="preserve">
<path fill="#32C5F4" d="M9,0C4,0,0,4,0,9s4,9,9,9s9-4,9-9S14,0,9,0z M9.6,16.9V14h2.2v-1.3H9.6v-1.5l0,0v-0.1c0.8,0,1.5,0.1,2.2,0.3
	c0.1-2.9,0.9-5.4,2.8-7.6c-0.6,0-1.2,0.1-1.7,0.4c-0.6,0.3-1,0.6-1.4,1.1c0.3-0.1,0.5-0.1,0.8,0c-0.8,1.4-1.3,3-1.4,4.7
	c-0.2,0-0.4-0.1-0.6-0.1c-0.2,0-0.4,0-0.6,0l0,0c0-1.6,0-3.3,0-4.9l0,0c0,0,0,0,0-0.1c0.3,0,0.5,0,0.8,0.1h0.1C10,4,9.5,3,9,2
	C8.5,3,8,4,7.4,5c0,0,0,0,0.1,0C7.7,4.9,8,4.9,8.3,4.9c0.1,0,0.1,0,0.1,0.1c0,1.6,0,3.3,0,4.9V10c-0.4,0-0.8,0-1.3,0.1
	C7,8.3,6.5,6.7,5.7,5.2c0.3-0.1,0.5-0.1,0.8,0C6.1,4.7,5.7,4.4,5.1,4.1C4.6,3.8,4,3.7,3.4,3.7c1.9,2.2,2.7,4.8,2.8,7.6
	c0.4-0.1,0.7-0.2,1.1-0.2C7.6,11.1,8,11,8.4,11v0.1l0,0v1.5H6.1V14h2.2v2.9c-4-0.4-7.2-3.8-7.2-7.9c0-4.4,3.5-7.9,7.9-7.9
	s7.9,3.5,7.9,7.9C16.9,13.1,13.7,16.5,9.6,16.9z"/>
</svg>
