<?xml version="1.0" encoding="utf-8"?>
<!-- Generator: Adobe Illustrator 17.0.0, SVG Export Plug-In . SVG Version: 6.00 Build 0)  -->
<!DOCTYPE svg PUBLIC "-//W3C//DTD SVG 1.1//EN" "http://www.w3.org/Graphics/SVG/1.1/DTD/svg11.dtd">
<svg version="1.1" id="Capa_1" xmlns="http://www.w3.org/2000/svg" xmlns:xlink="http://www.w3.org/1999/xlink" x="0px" y="0px"
	 width="40px" height="40px" viewBox="0 0 40 40" enable-background="new 0 0 40 40" xml:space="preserve">
<path fill="#FFFFFF" d="M34.056,4.828V1.633c0-0.514-0.202-0.965-0.57-1.27c-0.373-0.309-0.865-0.427-1.386-0.33L6.156,4.098
	C6.152,4.098,6.149,4.099,6.145,4.1C5.117,4.294,4.312,5.253,4.312,6.284v0.422v2.388v29.009C4.312,39.149,5.163,40,6.209,40h27.581
	c1.046,0,1.897-0.851,1.897-1.897V6.706C35.688,5.75,34.977,4.957,34.056,4.828z M6.269,4.782l25.944-4.064
	c0.004-0.001,0.007-0.001,0.011-0.002c0.316-0.059,0.607,0.005,0.82,0.181c0.206,0.17,0.319,0.432,0.319,0.736v3.176H6.209
	c-0.018,0-0.037,0.001-0.055,0.001C6.192,4.799,6.23,4.789,6.269,4.782z M34.994,38.103c0,0.664-0.54,1.204-1.204,1.204H32.71
	v-9.078c0-0.192-0.155-0.347-0.347-0.347c-0.192,0-0.347,0.155-0.347,0.347v9.078H6.209c-0.664,0-1.204-0.54-1.204-1.204V9.094
	V6.706c0-0.664,0.54-1.204,1.204-1.204h1.693v8.406c0,0.192,0.155,0.347,0.347,0.347c0.192,0,0.347-0.155,0.347-0.347V5.502h1.918
	v4.111c0,0.192,0.155,0.347,0.347,0.347s0.347-0.155,0.347-0.347V5.502h22.583c0.664,0,1.204,0.54,1.204,1.204V38.103z"/>
<path fill="#FFFFFF" d="M8.25,17.275c0.192,0,0.347-0.155,0.347-0.347V15.15c0-0.192-0.155-0.347-0.347-0.347
	c-0.192,0-0.347,0.155-0.347,0.347v1.778C7.903,17.119,8.058,17.275,8.25,17.275z"/>
</svg>
