<?xml version="1.0" encoding="utf-8"?>
<!-- Generator: Adobe Illustrator 17.0.0, SVG Export Plug-In . SVG Version: 6.00 Build 0)  -->
<!DOCTYPE svg PUBLIC "-//W3C//DTD SVG 1.1//EN" "http://www.w3.org/Graphics/SVG/1.1/DTD/svg11.dtd">
<svg version="1.1" id="Capa_1" xmlns="http://www.w3.org/2000/svg" xmlns:xlink="http://www.w3.org/1999/xlink" x="0px" y="0px"
	 width="40px" height="40px" viewBox="0 0 40 40" enable-background="new 0 0 40 40" xml:space="preserve">
<g>
	<path fill="#FFFFFF" d="M19.549,16.076l14.947-2.424v20.265c0,1.677-1.25,3.017-3.2,3.511c-2.143,0.53-4.21-0.367-4.623-2.009
		c-0.411-1.646,0.993-3.41,3.134-3.945c0.967-0.239,1.921-0.189,2.718,0.092V19.353l-10.954,2.004L21.52,36.544
		c-0.009,1.437-1.308,2.852-3.173,3.312c-2.116,0.53-4.336-0.477-4.573-1.984c-0.406-1.626,0.98-3.371,3.103-3.903
		c0.954-0.239,1.888-0.191,2.672,0.084C19.549,34.054,19.549,16.076,19.549,16.076z M13.93,23.508l0.053-18.771
		c0,0,4.089-0.218,8.087,6.052c0,0,0.011-3.237-3.063-5.606C13.005,0.991,13.022,0,13.022,0c-1.145,0.134-1.263,1.004-1.263,1.004
		V20.77c-0.859-0.301-1.886-0.354-2.94-0.092c-2.331,0.576-3.854,2.501-3.408,4.29c0.262,1.653,2.699,2.764,5.028,2.178
		c2.046-0.51,3.476-2.055,3.487-3.639H13.93z M24.802,11.378c0.712-0.178,1.209-0.716,1.213-1.266h0.002l0.018-6.531
		c0,0,1.422-0.075,2.813,2.107c0,0,0.002-1.127-1.068-1.949c-2.088-1.459-2.081-1.804-2.081-1.804
		c-0.398,0.046-0.44,0.349-0.44,0.349v6.878c-0.297-0.106-0.653-0.125-1.02-0.035c-0.813,0.2-1.34,0.872-1.185,1.494
		C23.144,11.196,23.992,11.581,24.802,11.378z M31.848,11.394c0.495-0.123,0.84-0.499,0.844-0.883l0.013-4.549
		c0,0,0.991-0.053,1.96,1.466c0,0,0.002-0.785-0.741-1.358c-1.455-1.017-1.452-1.257-1.452-1.257
		c-0.277,0.033-0.306,0.244-0.306,0.244v4.791c-0.207-0.073-0.457-0.086-0.712-0.022c-0.565,0.139-0.934,0.606-0.826,1.039
		C30.69,11.268,31.281,11.537,31.848,11.394z"/>
</g>
</svg>
