<?xml version="1.0" encoding="utf-8"?>
<!-- Generator: Adobe Illustrator 17.0.0, SVG Export Plug-In . SVG Version: 6.00 Build 0)  -->
<!DOCTYPE svg PUBLIC "-//W3C//DTD SVG 1.1//EN" "http://www.w3.org/Graphics/SVG/1.1/DTD/svg11.dtd">
<svg version="1.1" id="Capa_1" xmlns="http://www.w3.org/2000/svg" xmlns:xlink="http://www.w3.org/1999/xlink" x="0px" y="0px"
	 width="40px" height="40px" viewBox="0 0 40 40" enable-background="new 0 0 40 40" xml:space="preserve">
<g>
	<g>
		<g>
			<rect x="4.99" y="11.283" fill="#FFFFFF" width="20.819" height="2.08"/>
			<polygon fill="#FFFFFF" points="19.827,18.394 4.99,18.394 4.99,20.475 17.683,20.475 			"/>
			<polygon fill="#FFFFFF" points="4.99,27.591 15.035,27.591 15.483,25.507 4.99,25.507 			"/>
			<path fill="#FFFFFF" d="M31.188,9.594V7.786c-0.002-1.859-1.524-3.38-3.383-3.38H3.383C1.522,4.407,0,5.927,0,7.786V32.21
				c0,1.861,1.522,3.383,3.383,3.383h24.424c1.859,0,3.381-1.522,3.381-3.383V20.646l5.709-6.588l-5.469-4.741L31.188,9.594z
				 M28.627,32.691H2.559v-22.4V7.946h26.066v2.345v2.261l-9.13,10.539l5.465,4.744l3.67-4.235v9.092h-0.003
				C28.627,32.692,28.627,32.691,28.627,32.691z"/>
			<path fill="#FFFFFF" d="M39.532,9.172l-3.644-3.155c-0.498-0.436-1.21-0.446-1.572-0.027l-2.283,2.635l5.472,4.739l2.279-2.635
				C40.153,10.311,40.035,9.602,39.532,9.172z"/>
			<polygon fill="#FFFFFF" points="17.178,30.818 17.458,31.058 24.346,28.551 18.876,23.808 			"/>
		</g>
	</g>
</g>
</svg>
